<svg width="25" height="25" viewBox="0 0 25 25" fill="none" xmlns="http://www.w3.org/2000/svg">
<g clip-path="url(#clip0_763_310)">
<path d="M19.98 0.5H5.98004C3.21904 0.5 0.980042 2.739 0.980042 5.5V19.5C0.980042 22.261 3.21904 24.5 5.98004 24.5H19.98C22.742 24.5 24.98 22.261 24.98 19.5V5.5C24.98 2.739 22.742 0.5 19.98 0.5ZM8.98004 19.5H5.98004V8.5H8.98004V19.5ZM7.48004 7.232C6.51404 7.232 5.73004 6.442 5.73004 5.468C5.73004 4.494 6.51404 3.704 7.48004 3.704C8.44604 3.704 9.23004 4.494 9.23004 5.468C9.23004 6.442 8.44704 7.232 7.48004 7.232ZM20.98 19.5H17.98V13.896C17.98 10.528 13.98 10.783 13.98 13.896V19.5H10.98V8.5H13.98V10.265C15.376 7.679 20.98 7.488 20.98 12.741V19.5Z" fill="#1E1E1E"/>
</g>
<defs>
<clipPath id="clip0_763_310">
<rect width="24" height="24" fill="white" transform="translate(0.980042 0.5)"/>
</clipPath>
</defs>
</svg>
