<svg width="25" height="25" viewBox="0 0 25 25" fill="none" xmlns="http://www.w3.org/2000/svg">
<g clip-path="url(#clip0_763_306)">
<path d="M12.98 2.663C16.184 2.663 16.564 2.675 17.83 2.733C21.082 2.881 22.601 4.424 22.749 7.652C22.807 8.917 22.818 9.297 22.818 12.501C22.818 15.706 22.806 16.085 22.749 17.35C22.6 20.575 21.085 22.121 17.83 22.269C16.564 22.327 16.186 22.339 12.98 22.339C9.77604 22.339 9.39604 22.327 8.13104 22.269C4.87104 22.12 3.36004 20.57 3.21204 17.349C3.15404 16.084 3.14204 15.705 3.14204 12.5C3.14204 9.296 3.15504 8.917 3.21204 7.651C3.36104 4.424 4.87604 2.88 8.13104 2.732C9.39704 2.675 9.77604 2.663 12.98 2.663ZM12.98 0.5C9.72104 0.5 9.31304 0.514 8.03304 0.572C3.67504 0.772 1.25304 3.19 1.05304 7.552C0.994042 8.833 0.980042 9.241 0.980042 12.5C0.980042 15.759 0.994042 16.168 1.05204 17.448C1.25204 21.806 3.67004 24.228 8.03204 24.428C9.31304 24.486 9.72104 24.5 12.98 24.5C16.239 24.5 16.648 24.486 17.928 24.428C22.282 24.228 24.71 21.81 24.907 17.448C24.966 16.168 24.98 15.759 24.98 12.5C24.98 9.241 24.966 8.833 24.908 7.553C24.712 3.199 22.291 0.773 17.929 0.573C16.648 0.514 16.239 0.5 12.98 0.5ZM12.98 6.338C9.57704 6.338 6.81804 9.097 6.81804 12.5C6.81804 15.903 9.57704 18.663 12.98 18.663C16.383 18.663 19.142 15.904 19.142 12.5C19.142 9.097 16.383 6.338 12.98 6.338ZM12.98 16.5C10.771 16.5 8.98004 14.71 8.98004 12.5C8.98004 10.291 10.771 8.5 12.98 8.5C15.189 8.5 16.98 10.291 16.98 12.5C16.98 14.71 15.189 16.5 12.98 16.5ZM19.386 4.655C18.59 4.655 17.945 5.3 17.945 6.095C17.945 6.89 18.59 7.535 19.386 7.535C20.181 7.535 20.825 6.89 20.825 6.095C20.825 5.3 20.181 4.655 19.386 4.655Z" fill="#1E1E1E"/>
</g>
<defs>
<clipPath id="clip0_763_306">
<rect width="24" height="24" fill="white" transform="translate(0.980042 0.5)"/>
</clipPath>
</defs>
</svg>
