<svg xmlns="http://www.w3.org/2000/svg" xmlns:xlink="http://www.w3.org/1999/xlink" width="434" height="27.469" viewBox="0 0 434 27.469">
  <defs>
    <clipPath id="clip-path">
      <rect id="矩形_132" data-name="矩形 132" width="434" height="27.469" fill="#fff"/>
    </clipPath>
  </defs>
  <g id="组_204" data-name="组 204" transform="translate(0 0)">
    <g id="组_203" data-name="组 203" transform="translate(0 0)" clip-path="url(#clip-path)">
      <path id="路径_828" data-name="路径 828" d="M26.871,26.389H21.985V14.174c0-6.047,0-8.55-8.55-8.55s-8.55,2.5-8.55,8.55V26.389H0V14.174C0,8.189,0,.739,13.435.739s13.435,7.45,13.435,13.435Z" transform="translate(0 -0.142)" fill="#fff"/>
      <path id="路径_829" data-name="路径 829" d="M129.9,27.9c-13.435,0-13.435-7.449-13.435-13.435V2.252h4.885V14.467c0,6.048,0,8.55,8.55,8.55s8.55-2.5,8.55-8.55V2.252h4.885V14.467c0,5.986,0,13.435-13.435,13.435" transform="translate(-22.418 -0.433)" fill="#fff"/>
      <path id="路径_830" data-name="路径 830" d="M56.791,10.857a5.77,5.77,0,0,1-9.452,0L41.582,2.63H35.618l7.719,11.027a10.674,10.674,0,0,0,3.924,3.409,10.732,10.732,0,0,0,4.395,1.127l-5.992,8.56h5.964L68.513,2.63H62.55Z" transform="translate(-6.856 -0.506)" fill="#fff"/>
      <path id="路径_831" data-name="路径 831" d="M102.936,21.963c-.036,0-4.468.3-10.382.3-6.891,0-9.771-1.1-9.771-7.94s2.88-7.94,9.771-7.94c5.914,0,10.347.294,10.382.3v-4.9C101.811,1.7,97.609,1.5,92.553,1.5,87.8,1.5,77.9,1.5,77.9,14.321s9.9,12.825,14.656,12.825c5.056,0,9.257-.2,10.382-.283Z" transform="translate(-14.994 -0.288)" fill="#fff"/>
      <path id="路径_832" data-name="路径 832" d="M207.214,1.687V27.675h-2.726v-1.3H185.109v1.3H182.5V1.687Zm-2.726,2.489H185.109V23.881h19.379ZM202.3,11.228a22.459,22.459,0,0,1-3.172,7.025c.5,1.273,1.156,2.073,1.927,2.221.355.12.622-1.1.8-2.934a9.9,9.9,0,0,0,1.747,1.3c-.415,3.379-1.659,4.534-3.378,3.853a4.585,4.585,0,0,1-2.7-2.46A17.8,17.8,0,0,1,194,23.2a13.473,13.473,0,0,0-1.54-1.689,17.485,17.485,0,0,0,2.28-1.6c-2.9.474-5.9,1.037-8.267,1.451l-.3-2.073c2.163-.3,5.393-.8,8.593-1.3l.059,1.838a13.317,13.317,0,0,0,1.778-1.866,41.72,41.72,0,0,1-1.451-8.268h-8.683V7.644h8.5q-.09-1.423-.178-2.845h2.281c.03.948.089,1.925.149,2.845h4.177A10.86,10.86,0,0,0,198.472,5.6l1.275-1.273A12.4,12.4,0,0,1,202.77,6.28l-1.3,1.364h1.806V9.688h-5.867a52.927,52.927,0,0,0,.86,5.808,19.492,19.492,0,0,0,1.836-4.712Zm-8.356,5.719h-6.548V11.258h6.548Zm-1.927-4.118h-2.785v2.549h2.785Z" transform="translate(-35.128 -0.325)" fill="#fff"/>
      <path id="路径_833" data-name="路径 833" d="M254.263,23.3v2.757H227.8V23.3h14.786a86.724,86.724,0,0,0,3.733-13.838l3.141.594A120.019,120.019,0,0,1,245.491,23.3Zm-.89-15.023H228.75V5.554h10.725V.073h2.876V5.554h11.022Zm-18.1,13.809a45.442,45.442,0,0,0-2.637-11.764l2.607-.711a45.786,45.786,0,0,1,2.845,11.734Z" transform="translate(-43.848 -0.014)" fill="#fff"/>
      <path id="路径_834" data-name="路径 834" d="M283.771,2.533c-.829,2.49-1.867,5.572-2.815,7.884a8.967,8.967,0,0,1,2.46,6.163c0,1.689-.355,2.934-1.215,3.526a3.978,3.978,0,0,1-1.6.593,14.19,14.19,0,0,1-1.956.03,5.4,5.4,0,0,0-.652-2.371,9.118,9.118,0,0,0,1.51.031,1.586,1.586,0,0,0,.92-.268c.414-.295.533-1.007.533-1.867a8.125,8.125,0,0,0-2.4-5.54c.741-1.986,1.512-4.623,2.075-6.639h-3.172V27.544H275.03V1.587h6.519l.414-.089ZM289.49,14.95a16.892,16.892,0,0,1-.948,1.778h11.586l-.089,1.009c-.3,5.777-.682,8.029-1.423,8.858a2.356,2.356,0,0,1-1.689.86,15.35,15.35,0,0,1-2.726.06,6.2,6.2,0,0,0-.623-2.312c.92.089,1.749.119,2.1.119a.913.913,0,0,0,.829-.3c.386-.5.682-2.1.949-6.135h-1.393a19.935,19.935,0,0,1-5.719,8.565,18.738,18.738,0,0,0-1.747-1.571,15.839,15.839,0,0,0,5.037-6.994h-2.016a22.125,22.125,0,0,1-7.141,8.032,11.759,11.759,0,0,0-1.54-1.749,18.14,18.14,0,0,0,6.163-6.282H287.06a17.056,17.056,0,0,1-3.438,3.29,15.467,15.467,0,0,0-1.718-1.718,14.9,14.9,0,0,0,5.067-5.513h-3.555V12.7h17.63V14.95Zm9.274-3.733H285.845V1.468h12.919Zm-2.607-7.734h-7.793v1.9h7.793Zm0,3.793h-7.793V9.2h7.793Z" transform="translate(-52.938 -0.282)" fill="#fff"/>
      <path id="路径_835" data-name="路径 835" d="M323.78,19.771v2.667h-2.549V2.082H331.1V19.771Zm0-10.193h4.771V4.6H323.78Zm4.771,2.461H323.78v5.186h4.771Zm17.808,12.147c0,1.542-.385,2.371-1.392,2.816-1.037.443-2.666.5-5.156.5a10.482,10.482,0,0,0-1.007-2.667c1.778.06,3.585.03,4.118.03.5-.03.711-.208.711-.712V18.231h-7.94a15.064,15.064,0,0,1-5.572,9.541,9.6,9.6,0,0,0-2.044-1.9c4.949-3.7,5.452-9.246,5.452-13.779V1.577h12.83Zm-2.726-8.475V11.149h-7.407v.979c0,1.124-.029,2.34-.148,3.584ZM336.225,8.63h7.408v-4.5h-7.408Z" transform="translate(-61.831 -0.303)" fill="#fff"/>
      <path id="路径_836" data-name="路径 836" d="M386.448,12.889a22.025,22.025,0,0,1-4.652,7.231,25.8,25.8,0,0,0,11.526,4.5,13.253,13.253,0,0,0-1.838,2.637A25.653,25.653,0,0,1,379.6,22.046a31.555,31.555,0,0,1-11.853,5.3A15.387,15.387,0,0,0,366,24.742a29.174,29.174,0,0,0,11.527-4.652,23.594,23.594,0,0,1-4.357-7.083l2.637-.8a17.944,17.944,0,0,0,3.853,6.015,17,17,0,0,0,3.852-6.163Zm-9.6-4.829a31.283,31.283,0,0,1-8.179,7.319,22.9,22.9,0,0,0-2.28-2.163A22.787,22.787,0,0,0,374,6.992ZM392.522,6.4h-25.84V3.673h11.439V0h2.845V3.673h11.556Zm-7.5.415a44.273,44.273,0,0,1,7.852,6.4l-2.429,1.9a44.378,44.378,0,0,0-7.675-6.639Z" transform="translate(-70.449 0)" fill="#fff"/>
      <path id="路径_837" data-name="路径 837" d="M419.881,14.051a35.62,35.62,0,0,1-2.4,7.646c.563.295,1.185.8,2.133,1.392,2.075,1.245,4.771,1.423,8.267,1.423a108.291,108.291,0,0,0,11.852-.682,12.885,12.885,0,0,0-.8,2.846c-2.282.148-7.734.325-11.171.325-3.911,0-6.459-.325-8.594-1.57-1.185-.682-2.281-1.719-2.9-1.719-.682,0-1.69,1.927-2.49,3.735L411.91,24.9a12.988,12.988,0,0,1,2.993-3.083,27.74,27.74,0,0,0,1.926-5.747h-3.792c.741-1.749,1.6-4.149,2.341-6.459h-2.993V7.116h6.4c-.652,2.1-1.483,4.5-2.193,6.579h1.63l.414-.119Zm-4.415-8.179c-.325-1.3-1.068-3.407-1.542-4.977l2.43-.712c.534,1.542,1.244,3.526,1.63,4.8Zm8.86,16.772h-2.578V7.443h7.587c-1.542-.74-3.349-1.542-4.86-2.1l1.777-1.482a40.584,40.584,0,0,1,3.823,1.512,24.834,24.834,0,0,0,3.23-2.016H421.867V1.19h14.016l.533-.148,1.659,1.332a26.449,26.449,0,0,1-5.661,4.031,21.369,21.369,0,0,1,2.046,1.038h3.644V20.1c0,1.244-.237,1.867-1.068,2.222a10.628,10.628,0,0,1-3.971.415,7.533,7.533,0,0,0-.74-2.223c1.214.06,2.371.03,2.7.03.355,0,.474-.119.474-.474v-2.1h-4.415v4.562h-2.49V17.963h-4.266Zm0-10.994h4.268V9.517h-4.268Zm4.266,2.015h-4.268v2.222h4.268ZM435.5,9.518h-4.415v2.133H435.5Zm0,4.147h-4.415v2.222H435.5Z" transform="translate(-79.285 -0.035)" fill="#fff"/>
      <path id="路径_838" data-name="路径 838" d="M474.3,11.133c2.016,6.163,5.749,11.171,11.349,13.512a10.849,10.849,0,0,0-2.045,2.578c-5.541-2.578-9.127-7.379-11.438-13.661a20.5,20.5,0,0,1-11.437,13.661,9.617,9.617,0,0,0-2.1-2.312c7.053-3.081,9.927-8.415,11.113-13.779H459.217V8.288H470.24A74.03,74.03,0,0,0,470.6.11h2.993a74.636,74.636,0,0,1-.413,8.178h11.94v2.845Z" transform="translate(-88.277 -0.021)" fill="#fff"/>
      <path id="路径_839" data-name="路径 839" d="M531.339,21.694h-11.5v2.9c0,1.334-.295,1.986-1.332,2.343a17,17,0,0,1-4.889.384,8.708,8.708,0,0,0-.89-2.341c1.66.061,3.38.061,3.793.03.5-.03.622-.119.622-.474V21.694H505.707V19.471h11.438V17.96h1.542a21.961,21.961,0,0,0,2.7-1.571h-10.52V14.374H524.02l.593-.147,1.57,1.392a34.415,34.415,0,0,1-6.342,3.852h11.5ZM508.522,16.3h-2.607v-5.66h2.31L507.635,1.4l1.747.384c1.392-.414,2.993-1.038,4.059-1.452L514.8,1.841a26.4,26.4,0,0,1-4.474,1.453l.06,1.036h4.177V6.107h-4.06l.06,1.364h4.088V9.218a18.318,18.318,0,0,0,2.549-1.481A17.687,17.687,0,0,0,515.486,6.7l1.334-1.1a18.93,18.93,0,0,1,1.808,1.038,8.7,8.7,0,0,0,1.332-1.423l1.866.563a13.811,13.811,0,0,1-1.659,1.867,15.238,15.238,0,0,1,1.689,1.362l-1.392,1.245a15.669,15.669,0,0,0-1.689-1.423,22.146,22.146,0,0,1-2.637,1.719,10.282,10.282,0,0,0-1.481-1.273h-3.971l.061,1.362H526.3l.148-1.362h-3.971V7.471h4.12l.118-1.364H522.6V4.329h4.238l.059-1.362h-4.415V1.159h7.113c-.149,3.052-.385,6.816-.623,9.482h2.223V16.3h-2.726V12.686H508.522ZM520.2,5.1a13.215,13.215,0,0,0-1.57-1.334A20.278,20.278,0,0,1,516.08,5.4a17.13,17.13,0,0,0-1.512-1.273,15.564,15.564,0,0,0,2.488-1.394,17.479,17.479,0,0,0-1.718-1.007l1.3-1.1c.591.3,1.244.622,1.866,1.007A9.818,9.818,0,0,0,519.724.36l1.836.563a10.276,10.276,0,0,1-1.54,1.689,12.872,12.872,0,0,1,1.54,1.244Z" transform="translate(-97.339 -0.063)" fill="#fff"/>
      <path id="路径_840" data-name="路径 840" d="M207.214,1.687V27.675h-2.726v-1.3H185.109v1.3H182.5V1.687Zm-2.726,2.489H185.109V23.881h19.379ZM202.3,11.228a22.459,22.459,0,0,1-3.172,7.025c.5,1.273,1.156,2.073,1.927,2.221.355.12.622-1.1.8-2.934a9.9,9.9,0,0,0,1.747,1.3c-.415,3.379-1.659,4.534-3.378,3.853a4.585,4.585,0,0,1-2.7-2.46A17.8,17.8,0,0,1,194,23.2a13.473,13.473,0,0,0-1.54-1.689,17.485,17.485,0,0,0,2.28-1.6c-2.9.474-5.9,1.037-8.267,1.451l-.3-2.073c2.163-.3,5.393-.8,8.593-1.3l.059,1.838a13.317,13.317,0,0,0,1.778-1.866,41.72,41.72,0,0,1-1.451-8.268h-8.683V7.644h8.5q-.09-1.423-.178-2.845h2.281c.03.948.089,1.925.149,2.845h4.177A10.86,10.86,0,0,0,198.472,5.6l1.275-1.273A12.4,12.4,0,0,1,202.77,6.28l-1.3,1.364h1.806V9.688h-5.867a52.927,52.927,0,0,0,.86,5.808,19.492,19.492,0,0,0,1.836-4.712Zm-8.356,5.719h-6.548V11.258h6.548Zm-1.927-4.118h-2.785v2.549h2.785Z" transform="translate(-35.128 -0.325)" fill="#fff"/>
      <path id="路径_841" data-name="路径 841" d="M254.263,23.3v2.757H227.8V23.3h14.786a86.724,86.724,0,0,0,3.733-13.838l3.141.594A120.019,120.019,0,0,1,245.491,23.3Zm-.89-15.023H228.75V5.554h10.725V.073h2.876V5.554h11.022Zm-18.1,13.809a45.442,45.442,0,0,0-2.637-11.764l2.607-.711a45.786,45.786,0,0,1,2.845,11.734Z" transform="translate(-43.848 -0.014)" fill="#fff"/>
      <path id="路径_842" data-name="路径 842" d="M283.771,2.533c-.829,2.49-1.867,5.572-2.815,7.884a8.967,8.967,0,0,1,2.46,6.163c0,1.689-.355,2.934-1.215,3.526a3.978,3.978,0,0,1-1.6.593,14.19,14.19,0,0,1-1.956.03,5.4,5.4,0,0,0-.652-2.371,9.118,9.118,0,0,0,1.51.031,1.586,1.586,0,0,0,.92-.268c.414-.295.533-1.007.533-1.867a8.125,8.125,0,0,0-2.4-5.54c.741-1.986,1.512-4.623,2.075-6.639h-3.172V27.544H275.03V1.587h6.519l.414-.089ZM289.49,14.95a16.892,16.892,0,0,1-.948,1.778h11.586l-.089,1.009c-.3,5.777-.682,8.029-1.423,8.858a2.356,2.356,0,0,1-1.689.86,15.35,15.35,0,0,1-2.726.06,6.2,6.2,0,0,0-.623-2.312c.92.089,1.749.119,2.1.119a.913.913,0,0,0,.829-.3c.386-.5.682-2.1.949-6.135h-1.393a19.935,19.935,0,0,1-5.719,8.565,18.738,18.738,0,0,0-1.747-1.571,15.839,15.839,0,0,0,5.037-6.994h-2.016a22.125,22.125,0,0,1-7.141,8.032,11.759,11.759,0,0,0-1.54-1.749,18.14,18.14,0,0,0,6.163-6.282H287.06a17.056,17.056,0,0,1-3.438,3.29,15.467,15.467,0,0,0-1.718-1.718,14.9,14.9,0,0,0,5.067-5.513h-3.555V12.7h17.63V14.95Zm9.274-3.733H285.845V1.468h12.919Zm-2.607-7.734h-7.793v1.9h7.793Zm0,3.793h-7.793V9.2h7.793Z" transform="translate(-52.938 -0.282)" fill="#fff"/>
      <path id="路径_843" data-name="路径 843" d="M323.78,19.771v2.667h-2.549V2.082H331.1V19.771Zm0-10.193h4.771V4.6H323.78Zm4.771,2.461H323.78v5.186h4.771Zm17.808,12.147c0,1.542-.385,2.371-1.392,2.816-1.037.443-2.666.5-5.156.5a10.482,10.482,0,0,0-1.007-2.667c1.778.06,3.585.03,4.118.03.5-.03.711-.208.711-.712V18.231h-7.94a15.064,15.064,0,0,1-5.572,9.541,9.6,9.6,0,0,0-2.044-1.9c4.949-3.7,5.452-9.246,5.452-13.779V1.577h12.83Zm-2.726-8.475V11.149h-7.407v.979c0,1.124-.029,2.34-.148,3.584ZM336.225,8.63h7.408v-4.5h-7.408Z" transform="translate(-61.831 -0.303)" fill="#fff"/>
      <path id="路径_844" data-name="路径 844" d="M386.448,12.889a22.025,22.025,0,0,1-4.652,7.231,25.8,25.8,0,0,0,11.526,4.5,13.253,13.253,0,0,0-1.838,2.637A25.653,25.653,0,0,1,379.6,22.046a31.555,31.555,0,0,1-11.853,5.3A15.387,15.387,0,0,0,366,24.742a29.174,29.174,0,0,0,11.527-4.652,23.594,23.594,0,0,1-4.357-7.083l2.637-.8a17.944,17.944,0,0,0,3.853,6.015,17,17,0,0,0,3.852-6.163Zm-9.6-4.829a31.283,31.283,0,0,1-8.179,7.319,22.9,22.9,0,0,0-2.28-2.163A22.787,22.787,0,0,0,374,6.992ZM392.522,6.4h-25.84V3.673h11.439V0h2.845V3.673h11.556Zm-7.5.415a44.273,44.273,0,0,1,7.852,6.4l-2.429,1.9a44.378,44.378,0,0,0-7.675-6.639Z" transform="translate(-70.449 0)" fill="#fff"/>
      <path id="路径_845" data-name="路径 845" d="M419.881,14.051a35.62,35.62,0,0,1-2.4,7.646c.563.295,1.185.8,2.133,1.392,2.075,1.245,4.771,1.423,8.267,1.423a108.291,108.291,0,0,0,11.852-.682,12.885,12.885,0,0,0-.8,2.846c-2.282.148-7.734.325-11.171.325-3.911,0-6.459-.325-8.594-1.57-1.185-.682-2.281-1.719-2.9-1.719-.682,0-1.69,1.927-2.49,3.735L411.91,24.9a12.988,12.988,0,0,1,2.993-3.083,27.74,27.74,0,0,0,1.926-5.747h-3.792c.741-1.749,1.6-4.149,2.341-6.459h-2.993V7.116h6.4c-.652,2.1-1.483,4.5-2.193,6.579h1.63l.414-.119Zm-4.415-8.179c-.325-1.3-1.068-3.407-1.542-4.977l2.43-.712c.534,1.542,1.244,3.526,1.63,4.8Zm8.86,16.772h-2.578V7.443h7.587c-1.542-.74-3.349-1.542-4.86-2.1l1.777-1.482a40.584,40.584,0,0,1,3.823,1.512,24.834,24.834,0,0,0,3.23-2.016H421.867V1.19h14.016l.533-.148,1.659,1.332a26.449,26.449,0,0,1-5.661,4.031,21.369,21.369,0,0,1,2.046,1.038h3.644V20.1c0,1.244-.237,1.867-1.068,2.222a10.628,10.628,0,0,1-3.971.415,7.533,7.533,0,0,0-.74-2.223c1.214.06,2.371.03,2.7.03.355,0,.474-.119.474-.474v-2.1h-4.415v4.562h-2.49V17.963h-4.266Zm0-10.994h4.268V9.517h-4.268Zm4.266,2.015h-4.268v2.222h4.268ZM435.5,9.518h-4.415v2.133H435.5Zm0,4.147h-4.415v2.222H435.5Z" transform="translate(-79.285 -0.035)" fill="#fff"/>
      <path id="路径_846" data-name="路径 846" d="M474.3,11.133c2.016,6.163,5.749,11.171,11.349,13.512a10.849,10.849,0,0,0-2.045,2.578c-5.541-2.578-9.127-7.379-11.438-13.661a20.5,20.5,0,0,1-11.437,13.661,9.617,9.617,0,0,0-2.1-2.312c7.053-3.081,9.927-8.415,11.113-13.779H459.217V8.288H470.24A74.03,74.03,0,0,0,470.6.11h2.993a74.636,74.636,0,0,1-.413,8.178h11.94v2.845Z" transform="translate(-88.277 -0.021)" fill="#fff"/>
      <path id="路径_847" data-name="路径 847" d="M531.339,21.694h-11.5v2.9c0,1.334-.295,1.986-1.332,2.343a17,17,0,0,1-4.889.384,8.708,8.708,0,0,0-.89-2.341c1.66.061,3.38.061,3.793.03.5-.03.622-.119.622-.474V21.694H505.707V19.471h11.438V17.96h1.542a21.961,21.961,0,0,0,2.7-1.571h-10.52V14.374H524.02l.593-.147,1.57,1.392a34.415,34.415,0,0,1-6.342,3.852h11.5ZM508.522,16.3h-2.607v-5.66h2.31L507.635,1.4l1.747.384c1.392-.414,2.993-1.038,4.059-1.452L514.8,1.841a26.4,26.4,0,0,1-4.474,1.453l.06,1.036h4.177V6.107h-4.06l.06,1.364h4.088V9.218a18.318,18.318,0,0,0,2.549-1.481A17.687,17.687,0,0,0,515.486,6.7l1.334-1.1a18.93,18.93,0,0,1,1.808,1.038,8.7,8.7,0,0,0,1.332-1.423l1.866.563a13.811,13.811,0,0,1-1.659,1.867,15.238,15.238,0,0,1,1.689,1.362l-1.392,1.245a15.669,15.669,0,0,0-1.689-1.423,22.146,22.146,0,0,1-2.637,1.719,10.282,10.282,0,0,0-1.481-1.273h-3.971l.061,1.362H526.3l.148-1.362h-3.971V7.471h4.12l.118-1.364H522.6V4.329h4.238l.059-1.362h-4.415V1.159h7.113c-.149,3.052-.385,6.816-.623,9.482h2.223V16.3h-2.726V12.686H508.522ZM520.2,5.1a13.215,13.215,0,0,0-1.57-1.334A20.278,20.278,0,0,1,516.08,5.4a17.13,17.13,0,0,0-1.512-1.273,15.564,15.564,0,0,0,2.488-1.394,17.479,17.479,0,0,0-1.718-1.007l1.3-1.1c.591.3,1.244.622,1.866,1.007A9.818,9.818,0,0,0,519.724.36l1.836.563a10.276,10.276,0,0,1-1.54,1.689,12.872,12.872,0,0,1,1.54,1.244Z" transform="translate(-97.339 -0.063)" fill="#fff"/>
    </g>
  </g>
</svg>
